<mxfile host="Electron" agent="Mozilla/5.0 (Windows NT 10.0; Win64; x64) AppleWebKit/537.36 (KHTML, like Gecko) draw.io/26.0.9 Chrome/128.0.6613.186 Electron/32.2.5 Safari/537.36" version="26.0.9">
  <diagram name="Page-1" id="B__hm27EWNlAQW7TylQT">
    <mxGraphModel dx="1434" dy="836" grid="1" gridSize="10" guides="1" tooltips="1" connect="1" arrows="1" fold="1" page="1" pageScale="1" pageWidth="850" pageHeight="1100" math="0" shadow="0">
      <root>
        <mxCell id="0" />
        <mxCell id="1" parent="0" />
        <UserObject label="&lt;div&gt;&lt;font style=&quot;font-family: Calibri; color: rgb(254, 255, 255); direction: ltr; letter-spacing: 0px; line-height: 120%; opacity: 1;&quot;&gt;&lt;font&gt;1&lt;/font&gt;&lt;br&gt;&lt;/font&gt;&lt;/div&gt;" tags="Flowchart" id="node-1">
          <mxCell style="verticalAlign=middle;align=center;overflow=width;vsdxID=19661;fillColor=#44749f;gradientColor=none;shape=stencil(tVLLDsIgEPwajhgEn+da/2NjaUtEaBa09e8FqbHatBfjbXZndjcDQ0Tmamgk4cx5tGfZqsLXRBwI58rUEpUPiIiciKy0KCu0V1OkuoGojOhib3FDl+aW28V+Fac4u/cdxp71Mcm1MgP5ji/YZk4OeAocjrdjr18n+fTCF0+hU46i9eCVNR+cBqwkDadoqaHqTyXKtVI2g/aMl7H1n5xMv+RfvATw/tNSaZ0iMeS/MxBaKT8ifwA=);strokeColor=#41719c;spacingTop=-1;spacingBottom=-1;spacingLeft=-1;spacingRight=-1;points=[[0.5,1,0],[0.5,0,0],[0,0.5,0],[1,0.5,0]];labelBackgroundColor=none;rounded=0;html=1;whiteSpace=wrap;fontFamily=Helvetica;fontSize=11;fontColor=#ffffff;" vertex="1" parent="1">
            <mxGeometry x="160" y="320" width="120" height="44" as="geometry" />
          </mxCell>
        </UserObject>
        <UserObject label="&lt;div style=&quot;&quot;&gt;&lt;font style=&quot;font-family: Calibri; color: rgb(254, 255, 255); direction: ltr; letter-spacing: 0px; line-height: 120%; opacity: 1;&quot;&gt;&lt;font style=&quot;font-size: 11px;&quot;&gt;2&lt;/font&gt;&lt;br&gt;&lt;/font&gt;&lt;/div&gt;" tags="Flowchart" id="node-2">
          <mxCell style="verticalAlign=middle;align=center;overflow=width;vsdxID=19701;fillColor=#2E75B5;shape=stencil(nZBLDoAgDERP0z3SIyjew0SURgSD+Lu9kMZoXLhwN9O+tukAlrNpJg1SzDH4QW/URgNYgZTkjA4UkwJUgGXng+6DX1zLfmoymdXo17xh5zmRJ6Q42BWCfc2oJfdAr+Yv+AP9Cb7OJ3H/2JG1HNGz/84klThPVCc=);strokeColor=#006EAF;spacingTop=-1;spacingBottom=-1;spacingLeft=-1;spacingRight=-1;points=[[0,0.5,0],[1,0.5,0],[0.5,1,0],[0.5,0,0]];labelBackgroundColor=none;rounded=0;html=1;whiteSpace=wrap;fontFamily=Helvetica;fontSize=12;fontColor=#ffffff;" vertex="1" parent="1">
            <mxGeometry x="380" y="312" width="120" height="60" as="geometry" />
          </mxCell>
        </UserObject>
        <mxCell id="edge-1" style="edgeStyle=orthogonalEdgeStyle;rounded=0;orthogonalLoop=1;jettySize=auto;html=1;entryX=0;entryY=0.5;entryDx=0;entryDy=0;entryPerimeter=0;" edge="1" parent="1" source="node-1" target="node-2">
          <mxGeometry relative="1" as="geometry" />
        </mxCell>
      </root>
    </mxGraphModel>
  </diagram>
</mxfile>
